<?xml version="1.0" encoding="utf-8"?>
<!-- Generator: Adobe Illustrator 26.3.1, SVG Export Plug-In . SVG Version: 6.00 Build 0)  -->
<svg version="1.1" id="Layer_1" xmlns="http://www.w3.org/2000/svg" xmlns:xlink="http://www.w3.org/1999/xlink" x="0px" y="0px"
	 viewBox="0 0 142 31.6" style="enable-background:new 0 0 142 31.6;" xml:space="preserve">
<style type="text/css">
	.st0{fill:#283B5F;}
	.st1{fill:#FFCCC5;stroke:#EEB3AB;stroke-width:0.5458;stroke-miterlimit:4;}
	.st2{fill:#FFF0B8;stroke:#E0D19B;stroke-width:0.5458;stroke-miterlimit:4;}
	.st3{fill:#C2E9FF;stroke:#A7D1EA;stroke-width:0.5458;stroke-miterlimit:4;}
	.st4{fill-rule:evenodd;clip-rule:evenodd;fill:#A183F9;}
	.st5{fill-rule:evenodd;clip-rule:evenodd;fill:#F084B8;}
	.st6{fill-rule:evenodd;clip-rule:evenodd;fill:#6CDC92;}
	.st7{fill-rule:evenodd;clip-rule:evenodd;fill:#35198E;}
</style>
<g>
	<path class="st0" d="M52.1,23.6h2.5l-4.7-12.2h-3.1l-4.7,12.2h2.5l1-2.7h5.5L52.1,23.6z M46.4,18.9l2-5.2l2,5.2H46.4z M58.1,16.1
		v-1.3h-2.3v8.8h2.3v-3.8c0-1.2,0.2-2,0.7-2.5c0.5-0.5,1.2-0.6,2.2-0.5v-2.2C59.6,14.5,58.7,15,58.1,16.1L58.1,16.1z M73.1,14.5
		c-1.3,0-2.3,0.4-3,1.3c-0.6-0.9-1.5-1.3-2.7-1.3c-1.1,0-2,0.4-2.6,1.3v-1h-2.3v8.8h2.3v-4.4c0-0.8,0.2-1.4,0.5-1.8
		c0.3-0.4,0.8-0.7,1.4-0.7c1.1,0,1.7,0.7,1.7,2.2v4.8h2.3v-4.5c0-0.8,0.2-1.4,0.5-1.8c0.3-0.4,0.8-0.6,1.4-0.6
		c1.1,0,1.7,0.7,1.7,2.2v4.8h2.3v-5.3c0-1.2-0.3-2.1-0.9-2.8C75,14.9,74.1,14.5,73.1,14.5L73.1,14.5z M82.9,23.9
		c1.4,0,2.5-0.4,3.4-1.3c0.9-0.9,1.3-2,1.3-3.3c0-1.3-0.4-2.4-1.3-3.3c-0.9-0.9-2-1.3-3.4-1.3c-1.4,0-2.5,0.4-3.4,1.3
		c-0.9,0.9-1.3,2-1.3,3.3c0,1.3,0.4,2.4,1.3,3.3C80.4,23.4,81.6,23.9,82.9,23.9L82.9,23.9z M82.9,21.8c-0.7,0-1.3-0.2-1.8-0.7
		c-0.5-0.5-0.7-1.1-0.7-1.8c0-0.7,0.2-1.4,0.7-1.8c0.5-0.5,1.1-0.7,1.8-0.7s1.3,0.2,1.8,0.7c0.5,0.5,0.7,1.1,0.7,1.8
		c0,0.7-0.2,1.4-0.7,1.8C84.3,21.5,83.7,21.8,82.9,21.8z M91.7,16.1v-1.3h-2.3v8.8h2.3v-3.8c0-1.2,0.2-2,0.7-2.5
		c0.5-0.5,1.2-0.6,2.2-0.5v-2.2C93.3,14.5,92.3,15,91.7,16.1L91.7,16.1z M102,23.9c1.5,0,2.8-0.4,3.8-1.2c1-0.8,1.7-1.7,2-2.8
		l-2.3-0.6c-0.2,0.6-0.6,1.2-1.3,1.6c-0.6,0.4-1.4,0.7-2.3,0.7c-1.2,0-2.1-0.4-2.8-1.2c-0.7-0.8-1.1-1.8-1.1-2.9
		c0-1.1,0.4-2.1,1.1-2.9c0.7-0.8,1.7-1.2,2.9-1.2c0.9,0,1.6,0.2,2.3,0.7c0.6,0.4,1.1,1,1.3,1.6l2.3-0.6c-0.3-1.1-1-2-2-2.8
		c-1-0.8-2.3-1.2-3.9-1.2c-1.8,0-3.3,0.6-4.6,1.8c-1.2,1.2-1.8,2.7-1.8,4.5c0,1.8,0.6,3.3,1.8,4.6C98.7,23.3,100.2,23.9,102,23.9
		L102,23.9z M113.7,23.9c1.4,0,2.5-0.4,3.4-1.3c0.9-0.9,1.3-2,1.3-3.3c0-1.3-0.4-2.4-1.3-3.3c-0.9-0.9-2-1.3-3.4-1.3
		c-1.4,0-2.5,0.4-3.4,1.3c-0.9,0.9-1.3,2-1.3,3.3c0,1.3,0.4,2.4,1.3,3.3C111.2,23.4,112.3,23.9,113.7,23.9L113.7,23.9z M113.7,21.8
		c-0.7,0-1.3-0.2-1.8-0.7c-0.5-0.5-0.7-1.1-0.7-1.8c0-0.7,0.2-1.4,0.7-1.8c0.5-0.5,1.1-0.7,1.8-0.7c0.7,0,1.3,0.2,1.8,0.7
		c0.5,0.5,0.7,1.1,0.7,1.8c0,0.7-0.2,1.4-0.7,1.8C115,21.5,114.4,21.8,113.7,21.8z M126.8,10.9v5c-0.7-0.9-1.6-1.3-2.8-1.3
		c-1.2,0-2.3,0.4-3.1,1.3c-0.8,0.9-1.3,2-1.3,3.3c0,1.3,0.4,2.4,1.3,3.3s1.9,1.3,3.1,1.3c1.2,0,2.1-0.4,2.8-1.3v1.1h2.3V10.9
		L126.8,10.9z M124.4,21.8c-0.7,0-1.3-0.2-1.8-0.7c-0.5-0.5-0.7-1.1-0.7-1.9c0-0.8,0.2-1.4,0.7-1.9c0.5-0.5,1.1-0.7,1.8-0.7
		c0.7,0,1.3,0.2,1.8,0.7c0.5,0.5,0.7,1.1,0.7,1.8c0,0.8-0.2,1.4-0.7,1.9C125.7,21.6,125.1,21.8,124.4,21.8L124.4,21.8z M135.7,23.9
		c1.1,0,2-0.3,2.7-0.8c0.7-0.5,1.3-1.1,1.5-1.8l-2.1-0.6c-0.4,0.8-1.1,1.2-2.1,1.2c-0.8,0-1.4-0.2-1.8-0.5c-0.4-0.4-0.7-0.9-0.8-1.5
		h6.9c0-0.2,0.1-0.5,0.1-0.8c0-1.3-0.4-2.4-1.2-3.2c-0.8-0.9-1.9-1.3-3.3-1.3c-1.4,0-2.5,0.4-3.3,1.3c-0.9,0.9-1.3,2-1.3,3.3
		c0,1.4,0.4,2.5,1.3,3.4C133.1,23.5,134.3,23.9,135.7,23.9L135.7,23.9z M133.1,18.5c0.1-0.5,0.3-1,0.7-1.4c0.4-0.4,1-0.6,1.6-0.6
		c0.7,0,1.2,0.2,1.6,0.6c0.4,0.4,0.7,0.8,0.7,1.4H133.1z"/>
	<ellipse class="st1" cx="12.2" cy="11.6" rx="10.2" ry="10.1"/>
	<ellipse class="st2" cx="18.1" cy="20.1" rx="10.2" ry="10.1"/>
	<ellipse class="st3" cx="23.9" cy="11.6" rx="10.2" ry="10.1"/>
	<path class="st4" d="M16.5,18.9c-4.1-4.1-4.1-10.7,0-14.7c0.5-0.5,1-0.9,1.5-1.3c0.5,0.4,1.1,0.8,1.5,1.3c4.1,4.1,4.1,10.7,0,14.7
		c-0.5,0.5-1,0.9-1.5,1.3C17.5,19.8,17,19.4,16.5,18.9z"/>
	<path class="st5" d="M22.6,10.6c0.3,3-0.7,6-3,8.3c-3.2,3.2-8,3.9-11.9,2.1c-0.3-3,0.7-6,3-8.3C13.9,9.5,18.7,8.8,22.6,10.6z"/>
	<path class="st6" d="M28.6,20.9c0.2-2.9-0.8-5.9-3-8.2c-3.3-3.2-8.2-3.9-12.1-2c-0.2,2.9,0.8,5.9,3,8.2
		C19.8,22.2,24.7,22.8,28.6,20.9z"/>
	<g>
		<path class="st7" d="M18,20.2c0.5-0.4,1.1-0.8,1.5-1.3c2.3-2.3,3.3-5.3,3-8.3c-2.9-1.4-6.3-1.3-9.2,0.1c-0.2,2.9,0.8,5.9,3,8.2
			C17,19.4,17.5,19.8,18,20.2z"/>
	</g>
</g>
</svg>
