<?xml version="1.0" encoding="utf-8"?>
<!-- Generator: Adobe Illustrator 27.0.0, SVG Export Plug-In . SVG Version: 6.00 Build 0)  -->
<svg version="1.1" id="Layer_1" xmlns="http://www.w3.org/2000/svg" xmlns:xlink="http://www.w3.org/1999/xlink" x="0px" y="0px"
	 viewBox="0 0 700 135" style="enable-background:new 0 0 700 135;" xml:space="preserve">
<style type="text/css">
	.st0{fill-rule:evenodd;clip-rule:evenodd;}
</style>
<g id="Page-1">
	<g id="ot-logo" transform="translate(-610.000000, -473.000000)">
		<path id="Combined-Shape" class="st0" d="M639.9,518.1c-3.1,4.9-4.3,10.8-4.3,16.7c0,13.6,6.6,25.9,20.8,25.9
			c13.7,0,20.5-11.3,20.5-24.8c0-9.5-2.3-16.9-7.1-21.5c-5.3-4.9-11.3-5.1-14.9-4.8C647.7,510.2,643.4,512.7,639.9,518.1 M702.8,535
			c0,22.2-12.6,46.2-46.3,46.2c-24.3,0-46.5-13.8-46.5-46.2c0-26.9,16.7-47.6,49.8-45.7C695,491.3,702.8,519,702.8,535 M928.7,499.2
			c2.5-2.7,4.1-4.7,8.6-6.9c4-1.7,9.6-3,15.7-3c5.1,0,10.9,0.8,15.4,3.4c9.1,4.9,11.4,12.8,11.4,26.4v60h-25.3v-49.4
			c0-7.9-0.2-10.8-1.2-13.1c-2-4.7-6.5-6.7-11.4-6.7c-13.4,0-13.4,10.9-13.4,21.8V579H903v-87.6h25.6v7.8H928.7z M865.6,523.9
			c-0.5-3.7-1.2-8.6-4.8-12.4c-3.1-3.2-7.9-4.9-12.4-4.9c-6.1,0-10.4,3-12.9,5.7c-3.5,3.9-4.3,7.9-5.1,11.6H865.6z M890.9,556.3
			c-2.3,5-9.8,24.8-43,24.8c-25.6,0-43.7-15.9-43.7-44.7c0-21.2,10.3-47.3,44.3-47.3c5.1,0,20-0.6,31.1,11.5
			c11.3,12.3,11.9,29.4,12.2,39.3h-61.7c-0.2,10.9,6,21.9,19.7,21.9c13.9,0,18.7-9.2,21.8-15.5L890.9,556.3z M1085,489.2
			c6.3,0,19.2,0.7,29,11.5c11.3,12.3,11.9,29.4,12.2,39.3h-61.7c-0.2,10.9,5.1,21.9,18.9,21.9c13,0,17.3-8.1,20.4-14.2l0.2-0.4
			c0.1-0.3,0.3-0.6,0.4-0.8l19.4,10l-4.8,7.6c-4.5,6.8-13.1,17.2-37.5,17.2c-25.6,0-42.9-15.9-42.9-44.7c0-21.2,10.3-47.3,44.3-47.3
			h0.3c0.3,0,0.7,0,1.1,0L1085,489.2z M1245.3,473v18.4h16.7v18.2h-16.9v39v0.5c-0.1,5.2,0.1,9.4,6.6,9.4l9.1-0.3v20.2
			c-5.5,0.8-8.8,1.3-13.4,1.3c-8.8,0-18.4-0.5-23.8-8.6c-3.4-5.1-3.6-11.2-3.6-19.3v-42.2h-15.6l11.6-18.2h4V473H1245.3z
			 M1017.8,473v18.4h26.3l-11.6,18.2h-14.9v39c-0.2,5.4-0.2,9.9,6.6,9.9l9.1-0.3v20.2c-5.5,0.8-8.8,1.3-13.4,1.3c-0.4,0-0.8,0-1.2,0
			h-0.8c-8.2-0.1-16.8-1.1-21.8-8.6c-3.5-5.2-3.6-11.4-3.6-19.8V473H1017.8z M1150.4,491.4l13.4,19.6l12.5-19.6h29l-26.4,41.5
			l31.6,46.1h-29l-16.6-24.2l-15.4,24.2h-29l29.3-46.1l-28.5-41.5L1150.4,491.4L1150.4,491.4z M1082.8,506.6c-6.1,0-10.4,3-12.9,5.7
			c-3.5,3.9-4.3,7.9-5.1,11.6h35.2c-0.5-3.7-1.2-8.6-4.8-12.4C1092,508.3,1087.2,506.6,1082.8,506.6z M1310,509.6h-3.1l0.1-11.2
			l0.2-3.7l-0.9,3.1l-3.7,11.9h-2.8l-3.6-11.9l-0.9-3l0.2,3.7l0.1,11.2h-3v-18.2h4.3l4.5,14.3l4.4-14.3h4.3L1310,509.6L1310,509.6z
			 M1285.5,509.6h-3.1v-15.5h-5.8v-2.7h14.6v2.7h-5.7V509.6z M755.1,509.5c-4.6,0-9.4,1.9-13.1,6.6c-3.6,4.5-5.3,11.6-5.3,19.2
			c0,10.3,3,16.6,6.1,20.2c2.9,3.4,7.3,5.3,11.4,5.3c12.4,0,17.9-13.3,17.9-26.1c0-10.8-3.1-22.2-13.6-24.7
			C757.4,509.6,756.2,509.5,755.1,509.5L755.1,509.5z M737.9,499.2c2.4-3.8,10.2-9.9,22.7-9.9c21.2,0,36.1,16.3,36.1,45.5
			c0,18-6.4,46.4-37.1,46.4c-11,0-19.6-6.2-21.8-9.9V608h-25.5V491.4h25.6V499.2z"/>
	</g>
</g>
</svg>
