<svg width="246" height="55" viewBox="0 0 246 55" fill="none" xmlns="http://www.w3.org/2000/svg">
<path d="M89.9842 40.3798H94.3354L86.155 19.1456H80.7595L72.5791 40.3798H76.9304L78.6709 35.6804H88.2437L89.9842 40.3798ZM80.0633 32.1994L83.5443 23.1487L87.0253 32.1994H80.0633ZM100.427 27.326V25.0633H96.424V40.3798H100.427V33.7658C100.427 31.6772 100.775 30.2848 101.646 29.4146C102.516 28.5443 103.734 28.3703 105.475 28.5443V24.7152C103.212 24.5412 101.472 25.4114 100.427 27.326ZM126.535 24.7152C124.272 24.7152 122.532 25.4114 121.313 26.9779C120.269 25.4114 118.703 24.7152 116.614 24.7152C114.699 24.7152 113.133 25.4114 112.089 26.9779V25.2374H108.085V40.5538H112.089V32.8956C112.089 31.5032 112.437 30.4589 112.959 29.7627C113.481 29.0665 114.351 28.5443 115.396 28.5443C117.31 28.5443 118.354 29.7627 118.354 32.3734V40.7279H122.358V32.8956C122.358 31.5032 122.706 30.4589 123.228 29.7627C123.75 29.0665 124.62 28.7184 125.665 28.7184C127.579 28.7184 128.623 29.9367 128.623 32.5475V40.9019H132.627V31.3291C132.627 29.2405 132.104 27.6741 131.06 26.4557C129.842 25.2374 128.449 24.5412 126.535 24.7152ZM143.766 40.9019C146.203 40.9019 148.117 40.2057 149.684 38.6393C151.25 37.0728 151.946 35.1582 151.946 32.8956C151.946 30.6329 151.25 28.7184 149.684 27.1519C148.117 25.5855 146.203 24.8893 143.766 24.8893C141.329 24.8893 139.415 25.5855 137.848 27.1519C136.282 28.7184 135.585 30.6329 135.585 32.8956C135.585 35.1582 136.282 37.0728 137.848 38.6393C139.415 40.0317 141.329 40.9019 143.766 40.9019ZM143.766 37.2468C142.547 37.2468 141.503 36.8988 140.633 36.0285C139.763 35.1582 139.415 34.1139 139.415 32.8956C139.415 31.6772 139.763 30.4589 140.633 29.7627C141.503 28.8924 142.547 28.5443 143.766 28.5443C144.984 28.5443 146.028 28.8924 146.899 29.7627C147.769 30.6329 148.117 31.6772 148.117 32.8956C148.117 34.1139 147.769 35.3323 146.899 36.0285C146.028 36.8988 144.984 37.2468 143.766 37.2468ZM158.908 27.326V25.0633H154.905V40.3798H158.908V33.7658C158.908 31.6772 159.256 30.2848 160.127 29.4146C160.997 28.5443 162.215 28.3703 163.956 28.5443V24.7152C161.693 24.5412 159.953 25.4114 158.908 27.326ZM177.009 40.9019C179.62 40.9019 181.883 40.2057 183.623 38.8133C185.364 37.4209 186.582 35.8544 187.104 33.9399L183.101 32.8956C182.753 33.9399 182.057 34.9842 180.839 35.6804C179.794 36.3766 178.402 36.8988 176.835 36.8988C174.747 36.8988 173.18 36.2025 171.962 34.8101C170.744 33.4177 170.047 31.6772 170.047 29.7627C170.047 27.8481 170.744 26.1076 171.962 24.7152C173.18 23.3228 174.921 22.6266 177.009 22.6266C178.576 22.6266 179.794 22.9747 181.013 23.8449C182.057 24.5412 182.927 25.5855 183.275 26.6298L187.278 25.5855C186.756 23.6709 185.538 22.1044 183.797 20.712C182.057 19.3196 179.794 18.6234 177.009 18.6234C173.877 18.6234 171.266 19.6677 169.003 21.7563C166.915 23.845 165.87 26.4557 165.87 29.5886C165.87 32.7215 166.915 35.3323 169.003 37.595C171.092 39.8576 173.703 40.9019 177.009 40.9019ZM197.373 40.9019C199.81 40.9019 201.725 40.2057 203.291 38.6393C204.858 37.0728 205.554 35.1582 205.554 32.8956C205.554 30.6329 204.858 28.7184 203.291 27.1519C201.725 25.5855 199.81 24.8893 197.373 24.8893C194.937 24.8893 193.022 25.5855 191.456 27.1519C189.889 28.7184 189.193 30.6329 189.193 32.8956C189.193 35.1582 189.889 37.0728 191.456 38.6393C192.848 40.0317 194.937 40.9019 197.373 40.9019ZM197.199 37.2468C195.981 37.2468 194.937 36.8988 194.066 36.0285C193.196 35.1582 192.848 34.1139 192.848 32.8956C192.848 31.6772 193.196 30.4589 194.066 29.7627C194.937 28.8924 195.981 28.5443 197.199 28.5443C198.418 28.5443 199.462 28.8924 200.332 29.7627C201.202 30.6329 201.551 31.6772 201.551 32.8956C201.551 34.1139 201.202 35.3323 200.332 36.0285C199.636 36.8988 198.592 37.2468 197.199 37.2468ZM220.174 18.2753V26.9779C218.956 25.4114 217.389 24.7152 215.301 24.7152C213.212 24.7152 211.297 25.4114 209.905 26.9779C208.513 28.5443 207.642 30.4589 207.642 32.7215C207.642 34.9842 208.339 36.8987 209.905 38.4652C211.471 40.0317 213.212 40.7279 215.301 40.7279C217.389 40.7279 218.956 40.0317 220.174 38.4652V40.3798H224.177V18.2753H220.174ZM215.823 37.2468C214.604 37.2468 213.56 36.8988 212.69 36.0285C211.82 35.1582 211.471 34.1139 211.471 32.7215C211.471 31.3291 211.82 30.2848 212.69 29.4146C213.56 28.5443 214.604 28.1962 215.823 28.1962C217.041 28.1962 218.085 28.5443 218.956 29.4146C219.826 30.2848 220.174 31.3291 220.174 32.5475C220.174 33.9399 219.826 34.9842 218.956 35.8544C218.085 36.8987 217.041 37.2468 215.823 37.2468ZM235.49 40.9019C237.405 40.9019 238.971 40.3798 240.19 39.5095C241.408 38.6393 242.453 37.5949 242.801 36.3766L239.146 35.3323C238.449 36.7247 237.231 37.4209 235.49 37.4209C234.098 37.4209 233.054 37.0728 232.358 36.5506C231.661 35.8544 231.139 34.9842 230.965 33.9399H242.975C242.975 33.5918 243.149 33.0696 243.149 32.5475C243.149 30.2848 242.453 28.3703 241.06 26.9779C239.668 25.4114 237.753 24.7152 235.316 24.7152C232.88 24.7152 230.965 25.4114 229.573 26.9779C228.006 28.5443 227.31 30.4589 227.31 32.7215C227.31 35.1582 228.006 37.0728 229.573 38.6393C230.965 40.2057 233.054 40.9019 235.49 40.9019ZM231.139 31.5032C231.313 30.6329 231.661 29.7627 232.358 29.0665C233.054 28.3703 234.098 28.0222 235.142 28.0222C236.361 28.0222 237.231 28.3703 237.927 29.0665C238.623 29.7627 239.146 30.4589 239.146 31.5032H231.139Z" fill="#283B5F"/>
<path d="M20.538 37.0728C30.3428 37.0728 38.2911 29.2023 38.2911 19.4937C38.2911 9.78499 30.3428 1.91455 20.538 1.91455C10.7332 1.91455 2.78479 9.78499 2.78479 19.4937C2.78479 29.2023 10.7332 37.0728 20.538 37.0728Z" fill="#FFCCC5" stroke="#EEB3AB" stroke-width="0.5458"/>
<path d="M30.9811 51.8671C40.7859 51.8671 48.7342 43.9967 48.7342 34.288C48.7342 24.5793 40.7859 16.7089 30.9811 16.7089C21.1763 16.7089 13.2279 24.5793 13.2279 34.288C13.2279 43.9967 21.1763 51.8671 30.9811 51.8671Z" fill="#FFF0B8" stroke="#E0D19B" stroke-width="0.5458"/>
<path d="M41.0759 37.0728C50.8807 37.0728 58.8291 29.2023 58.8291 19.4937C58.8291 9.78499 50.8807 1.91455 41.0759 1.91455C31.2711 1.91455 23.3228 9.78499 23.3228 19.4937C23.3228 29.2023 31.2711 37.0728 41.0759 37.0728Z" fill="#C2E9FF" stroke="#A7D1EA" stroke-width="0.5458"/>
<path fill-rule="evenodd" clip-rule="evenodd" d="M28.0221 32.1994C20.886 25.2373 20.886 13.75 28.0221 6.61392C28.8924 5.74366 29.7626 5.04746 30.6329 4.35126C31.5031 5.04746 32.5474 5.74366 33.2436 6.61392C40.3797 13.75 40.3797 25.2373 33.2436 32.1994C32.3734 33.0696 31.5031 33.7658 30.6329 34.462C29.7626 33.7658 28.8924 33.0696 28.0221 32.1994Z" fill="#A183F9"/>
<path fill-rule="evenodd" clip-rule="evenodd" d="M38.8133 17.9272C39.3355 23.1487 37.595 28.3703 33.5918 32.3734C28.0222 37.943 19.6678 39.1614 12.8798 36.0285C12.3576 30.807 14.0982 25.5854 18.1013 21.5823C23.6709 15.8386 32.0254 14.6203 38.8133 17.9272Z" fill="#F084B8"/>
<path fill-rule="evenodd" clip-rule="evenodd" d="M49.0822 35.6804C49.4303 30.6329 47.6898 25.4114 43.8607 21.4082C38.117 15.8386 29.5886 14.6202 22.8006 17.9272C22.4525 22.9747 24.193 28.1962 28.0221 32.1993C33.7658 37.943 42.2943 38.9873 49.0822 35.6804Z" fill="#6CDC92"/>
<path fill-rule="evenodd" clip-rule="evenodd" d="M30.8069 34.462C31.6772 33.7658 32.7215 33.0696 33.4177 32.1994C37.4208 28.1962 39.1613 22.9747 38.6392 17.7531C33.5917 15.3164 27.674 15.4905 22.6265 17.9272C22.2784 22.9747 24.0189 28.1962 27.848 32.1994C28.8923 33.0696 29.7626 33.7658 30.8069 34.462Z" fill="#35198E"/>
</svg>
