<svg id="Layer_1" data-name="Layer 1" xmlns="http://www.w3.org/2000/svg" viewBox="0 0 425.2 153.37"><defs><style>.cls-1{fill:#4f565c;}.cls-2{fill:#4b9ccc;}.cls-3{fill:#8ed1db;}.cls-4{fill:#0095c0;}.cls-5{fill:#ef4d4e;}.cls-6{fill:#77434c;}.cls-7{fill:#6a276f;}</style></defs><title>Logo_color_notagline_RGB_transparant</title><path class="cls-1" d="M190.53,91.71a16.77,16.77,0,0,0,7.64-2c1.28.54,2,2.64,1.42,4.33a18.88,18.88,0,0,1-10.34,2.7c-10.68,0-15.68-6.62-15.68-18s5.27-18.12,16.22-18.12a23.4,23.4,0,0,1,9.67,1.89c.61,2-.47,4.19-1.62,4.73a18,18,0,0,0-7.23-1.62c-6.62,0-10.07,4.46-10.07,13S183.91,91.71,190.53,91.71Z"/><path class="cls-1" d="M232.24,88.6a3.79,3.79,0,0,1,1.42,4.66s-4.33,3.45-12.1,3.45c-10.61,0-16.63-6.56-16.63-18S211,60.61,221.15,60.61s14.67,7,14.67,17.17V81.1H211.89c.34,6.42,4,10.61,10.07,10.61A21,21,0,0,0,232.24,88.6ZM228.79,77c0-6.29-2-11.42-8.18-11.42-5.75,0-8.72,4.33-8.72,11.42Z"/><path class="cls-1" d="M273.34,59.74c1.76.2,3,1.89,2.77,4.19a11.87,11.87,0,0,1-5.34,2.1,10.12,10.12,0,0,1,3,7.64c0,7.17-6.22,12.84-16.09,12.84a21.06,21.06,0,0,1-6.69-1c-1.76.74-3.31,1.55-3.31,3.38s1.83,2.64,8.92,2.64h5.41c8.52,0,13,3.11,13.11,9.53.07,8.25-8.25,12.57-18.32,12.57s-15.68-4-15.68-9.4c0-5.61,4.73-7.71,6.62-8.25-2.84-.34-5.54-1.69-5.54-5.48s3.79-5.81,5.54-6.42c-3.58-2.16-5.48-6-5.48-10.48,0-7.64,6.42-13,15.48-13,5.47,0,6.83,1.28,9.67,1.28S273.34,59.74,273.34,59.74Zm-16.43,48.94c6.89,0,11.29-2.16,11.29-7,0-4.53-4.06-5.27-8-5.27h-6.08c-3.31.74-7,2.3-7,6.22S250.36,108.68,256.92,108.68Zm1.15-27.11c5.07,0,8.79-2.77,8.79-8s-3.52-8-8.79-8-8.79,2.84-8.79,8S252.79,81.57,258.06,81.57Z"/><path class="cls-1" d="M307.75,88.6a3.79,3.79,0,0,1,1.42,4.66s-4.33,3.45-12.1,3.45c-10.61,0-16.63-6.56-16.63-18s6.08-18.12,16.22-18.12,14.67,7,14.67,17.17V81.1H287.4c.34,6.42,4,10.61,10.07,10.61A21,21,0,0,0,307.75,88.6ZM304.3,77c0-6.29-2-11.42-8.18-11.42-5.75,0-8.72,4.33-8.72,11.42Z"/><path class="cls-1" d="M349.05,95.83a8.32,8.32,0,0,1-4.26.88,7.75,7.75,0,0,1-3.92-.74l-14.8-16.63V95.56a6.36,6.36,0,0,1-3.45.68,6.8,6.8,0,0,1-3.51-.68V46.22a6.36,6.36,0,0,1,3.45-.68,6.8,6.8,0,0,1,3.51.68v32l14.47-16.9a7.62,7.62,0,0,1,3.72-.74c2.77,0,3.72.81,3.72.81l-14.4,16.83Z"/><path class="cls-1" d="M357.5,68.79a3.75,3.75,0,0,1-2.3-4.33,22.25,22.25,0,0,1,13.18-3.85c8.52,0,13.52,3.85,13.52,11.69v18c0,1.49.41,2.16,2.7,2.16a4,4,0,0,1,.54,2,5.41,5.41,0,0,1-4.39,2.16A4.47,4.47,0,0,1,376,92.86c-2.64,2.64-6.29,3.85-10.61,3.85-6.35,0-12.3-3.72-12.3-11,0-5.27,3.11-10,14.2-10a29.52,29.52,0,0,1,7.64.88V72.92c0-4.94-2.37-7.23-7.57-7.23A17.11,17.11,0,0,0,357.5,68.79Zm2.57,16.7c0,3.58,2.57,6.22,7.77,6.22a9.91,9.91,0,0,0,7.1-2.91V80.62a25.51,25.51,0,0,0-6.42-.88C362.1,79.75,360.07,82.31,360.07,85.49Z"/><path class="cls-2" d="M140.56,29.44c.05,1,.07,1.87.07,2.86-.08,31.57-28.06,64.83-62.48,74.28-22.46,6.16-42.1.68-53-12.65,1.6,29.74,28.75,46.27,62.1,37.11,34.43-9.45,62.4-42.7,62.48-74.28C149.73,45.8,146.38,36.54,140.56,29.44Z"/><path class="cls-3" d="M140.56,29.44c-5.17-5.89-13.06-9.26-22.37-9.26h0a43.47,43.47,0,0,0-10.74,1.4C84.86,27.33,65.89,49.5,65.83,70.21a32.15,32.15,0,0,0,.44,5.44.81.81,0,0,0,.87.69,1.71,1.71,0,0,0,1.53-1.09C74.58,59.71,89.35,45.78,106.61,41a44.09,44.09,0,0,1,11.65-1.64c8.23,0,15.36,2.64,20.47,7.32a58.77,58.77,0,0,0,1.9-14.43Q140.63,30.85,140.56,29.44Z"/><path class="cls-4" d="M149.7,56.59v-.31h0v-.1h0v0h0a42.88,42.88,0,0,0-7-23.87l-.08-.12-.17-.25a24.79,24.79,0,0,0-1.87-2.41q.07,1.41.07,2.86a58.77,58.77,0,0,1-1.9,14.43,25.2,25.2,0,0,1,7,11,30.49,30.49,0,0,1,1.41,9.45,40.1,40.1,0,0,1-2.61,13.77,63.15,63.15,0,0,0,5.18-23.52h0v0h0v0h0v0h0v0h0v-.33h0v-.26Z"/><path class="cls-5" d="M58.9,32.13a3.23,3.23,0,0,0-2,.77c-20,15.73-32.91,39.24-31.81,61,6.08,7.41,14.87,12.4,25.33,14.3a41.27,41.27,0,0,1-8.58-22C40.18,69.16,47.34,50.78,60,35.72,61.48,33.89,60.53,32.13,58.9,32.13Z"/><path class="cls-6" d="M25.11,93.93c0,.76.09,1.51.16,2.26,2.29,22.88,20.12,37.38,44,37.38A67.71,67.71,0,0,0,87.21,131q2.77-.76,5.49-1.72a84.57,84.57,0,0,0,9.51-4.05,62.09,62.09,0,0,1-12.93,1.35c-14.22,0-26.31-5.33-34.83-14.08a38.31,38.31,0,0,1-4-4.31c-10.46-1.9-19.24-6.89-25.33-14.3"/><path class="cls-7" d="M89.28,126.63c-14.22,0-26.31-5.33-34.83-14.08a38.33,38.33,0,0,1-4-4.31c-10.46-1.9-19.24-6.89-25.33-14.3q.06,1.15.17,2.29c2.3,22.87,20.13,37.35,44,37.35A67.72,67.72,0,0,0,87.21,131q2.77-.76,5.48-1.72a84.52,84.52,0,0,0,9.52-4.06A62.07,62.07,0,0,1,89.28,126.63Z"/></svg>