<?xml version="1.0" encoding="UTF-8"?>
<svg id="Layer_2" data-name="Layer 2" xmlns="http://www.w3.org/2000/svg" xmlns:xlink="http://www.w3.org/1999/xlink" viewBox="0 0 1378 185.3">
  <defs>
    <style>
      .cls-1 {
        fill: url(#linear-gradient-2);
      }

      .cls-2 {
        clip-path: url(#clippath);
      }

      .cls-3 {
        fill: none;
      }

      .cls-4 {
        fill: url(#linear-gradient);
      }

      .cls-5 {
        fill: #231f20;
      }
    </style>
    <clipPath id="clippath">
      <path class="cls-3" d="M1025.07,124.85h29.95v1.1c0,7.49,2.02,13.51,6.06,18.06,4.04,4.55,9.32,6.83,15.86,6.83,7.19,0,13.05-2.55,17.56-7.65,4.51-5.1,6.77-11.73,6.77-19.88s-2.5-14.55-7.49-18.77c-4.99-4.22-12.41-6.33-22.24-6.33-.44,0-1.17,.04-2.2,.11-1.03,.07-1.8,.11-2.31,.11v-26.54c.51,0,1.25,.04,2.2,.11,.95,.07,1.65,.11,2.09,.11,6.68,0,11.58-1.32,14.7-3.96,3.12-2.64,4.68-6.83,4.68-12.55,0-4.7-1.21-8.35-3.63-10.96-2.42-2.61-5.8-3.91-10.13-3.91-3.89,0-6.92,1.34-9.08,4.02-2.17,2.68-3.36,6.44-3.58,11.29h-27.75c0-12.99,3.87-23.45,11.62-31.38,7.74-7.93,17.93-11.89,30.56-11.89,11.23,0,20.77,3.93,28.63,11.78,7.85,7.86,11.78,17.25,11.78,28.19,0,6.53-1.29,12.22-3.85,17.07-2.57,4.85-6.57,9.14-12,12.88,9.18,4.11,16.02,9.75,20.54,16.9s6.77,15.95,6.77,26.37c0,6.97-1.1,13.38-3.3,19.21-2.2,5.84-5.62,11.4-10.24,16.68-5.51,6.31-11.27,10.83-17.29,13.54-6.02,2.71-13.32,4.07-21.91,4.07-16.52,0-29.44-4.77-38.76-14.31-9.32-9.54-13.98-22.76-13.98-39.64v-.66ZM1200.93,15.94h32.7l-36.34,54.84c2.86-.66,5.21-1.1,7.05-1.32,1.83-.22,3.56-.33,5.18-.33,13.14,0,24.28,5.21,33.42,15.64,9.14,10.42,13.71,23.2,13.71,38.32,0,6.24-1.23,12.63-3.69,19.16-2.46,6.54-5.82,12.3-10.08,17.29-5.8,6.83-12.13,11.82-19,14.98-6.86,3.16-14.88,4.73-24.06,4.73-7.71,0-14.98-1.39-21.8-4.18-6.83-2.79-12.88-6.83-18.17-12.11-5.29-5.29-9.34-11.21-12.17-17.78-2.83-6.57-4.24-13.34-4.24-20.32,0-7.93,1.54-15.91,4.62-23.95,3.08-8.04,9.07-18.7,17.95-31.99l34.91-52.96Zm-27.31,105.93c0,8,2.57,14.79,7.71,20.37,5.14,5.58,11.3,8.37,18.5,8.37,7.63,0,13.89-2.59,18.77-7.76,4.88-5.18,7.32-11.84,7.32-19.99s-2.4-14.81-7.21-19.99c-4.81-5.17-10.96-7.76-18.44-7.76s-13.62,2.64-18.83,7.93c-5.21,5.29-7.82,11.56-7.82,18.83Zm92.28-49.77c0-9.98,.77-17.67,2.31-23.07s4.07-10.33,7.6-14.81c5.51-7.27,12.07-12.66,19.71-16.19,7.63-3.52,16.48-5.29,26.54-5.29,9.4,0,18.04,1.85,25.93,5.56,7.89,3.71,14.74,9.16,20.54,16.35,3.3,4.11,5.71,9.1,7.21,14.98,1.5,5.87,2.26,13.51,2.26,22.9v47.57c0,9.98-.77,17.71-2.31,23.18-1.54,5.47-4.07,10.44-7.6,14.92-5.51,7.2-12.06,12.54-19.66,16.02s-16.46,5.23-26.59,5.23c-9.4,0-18.04-1.85-25.93-5.56-7.89-3.71-14.74-9.16-20.54-16.35-3.3-4.11-5.71-9.08-7.21-14.92-1.51-5.84-2.26-13.42-2.26-22.74v-47.79Zm31.38-.22v48.23c0,10.42,2,18.15,6,23.18,4,5.03,10.19,7.54,18.55,7.54s14.68-2.57,18.72-7.71c4.04-5.14,6.06-13.1,6.06-23.89v-49.66c0-4.55-.2-7.96-.61-10.24-.4-2.27-1.08-4.26-2.04-5.95-2.28-3.82-5.3-6.77-9.08-8.86-3.78-2.09-8.06-3.14-12.83-3.14-8.22,0-14.41,2.55-18.55,7.65-4.15,5.1-6.22,12.72-6.22,22.85Z"/>
    </clipPath>
    <linearGradient id="linear-gradient" x1="662.22" y1="378.68" x2="1172.49" y2="378.68" gradientTransform="translate(1828.04 -663.33) rotate(108.08)" gradientUnits="userSpaceOnUse">
      <stop offset="0" stop-color="#00b6f1"/>
      <stop offset="1" stop-color="#2e3192"/>
    </linearGradient>
    <linearGradient id="linear-gradient-2" x1="154.17" y1="34.72" x2=".47" y2="180.25" gradientTransform="matrix(1, 0, 0, 1, 0, 0)" xlink:href="#linear-gradient"/>
  </defs>
  <g id="Layer_1-2" data-name="Layer 1">
    <g>
      <g class="cls-2">
        <path class="cls-4" d="M1100.33,332.46c-133.95-43.74-207.07-187.78-163.34-321.72,43.74-133.95,187.78-207.07,321.72-163.34,133.95,43.74,215.47,187.78,171.73,321.72-43.74,133.95-196.17,207.07-330.12,163.34Z"/>
      </g>
      <g>
        <path class="cls-5" d="M258.02,11.55c-1.25-.07-2.16-.11-2.73-.11-13.94,0-24.34,3.06-31.21,9.17-6.86,6.11-10.29,15.39-10.29,27.83v3.22h.04v124.42h27.84V51.66h0v-2.14c0-4.72,1.34-8.1,4.02-10.13,2.68-2.04,7.13-3.06,13.35-3.06h1.93V11.66c-.72,0-1.7-.04-2.95-.11Z"/>
        <path class="cls-5" d="M375.8,123.43c.97,8.91,4.51,15.92,10.61,21.05,6.1,5.13,13.98,7.69,23.63,7.69,6.44,0,12.22-1.35,17.34-4.04,5.12-2.69,9.19-6.47,12.18-11.34h30.98c-5.24,13.47-13.08,23.93-23.52,31.37-10.44,7.45-22.51,11.17-36.2,11.17-9.2,0-17.68-1.63-25.43-4.88-7.75-3.25-14.69-8.06-20.82-14.42-5.84-6.06-10.37-13.08-13.58-21.05-3.22-7.97-4.83-16.14-4.83-24.53s1.48-16.71,4.43-24.3c2.96-7.59,7.31-14.42,13.08-20.49,6.29-6.66,13.39-11.79,21.33-15.38,7.93-3.59,16.13-5.39,24.58-5.39,10.7,0,20.69,2.43,29.97,7.29,9.28,4.87,17.17,11.71,23.69,20.54,3.97,5.32,6.9,11.26,8.81,17.85,1.91,6.59,2.86,14.14,2.86,22.68,0,.67-.04,1.7-.11,3.09-.08,1.39-.11,2.41-.11,3.09h-98.89Zm68.14-22.79c-2.47-8.23-6.61-14.5-12.4-18.8-5.8-4.3-13.12-6.46-21.95-6.46-7.63,0-14.48,2.32-20.54,6.96-6.06,4.64-10.14,10.74-12.24,18.3h67.13Z"/>
        <path class="cls-5" d="M520.94,52.6v14.03c4.19-5.61,9-9.77,14.42-12.46,5.42-2.7,11.62-4.04,18.58-4.04,8.9,0,16.67,1.68,23.29,5.05,6.62,3.37,12.14,8.42,16.56,15.15,2.84,4.49,4.88,9.6,6.12,15.32,1.23,5.73,1.85,14.09,1.85,25.09v65.33h-28.74v-54.67c0-16.54-1.91-27.88-5.72-34.01-3.82-6.14-10.4-9.2-19.76-9.2s-16.46,3.39-20.65,10.16c-4.19,6.77-6.29,18.39-6.29,34.85v52.87h-27.73V52.6h28.06Z"/>
        <path class="cls-5" d="M645.54,135.11v1.68c0,5.46,1.38,9.9,4.15,13.3,2.77,3.41,6.36,5.11,10.78,5.11s7.61-1.27,10.27-3.82c2.66-2.54,3.99-5.8,3.99-9.77,0-3.67-.97-6.68-2.92-9.04-1.95-2.36-5.43-4.73-10.44-7.13-2.84-1.27-7.03-3.03-12.57-5.28-5.54-2.25-9.09-4-10.66-5.28-4.57-3.74-7.93-7.91-10.1-12.52-2.17-4.6-3.26-9.86-3.26-15.77,0-10.4,3.65-19.2,10.94-26.38,7.3-7.18,16.14-10.78,26.55-10.78,11,0,19.7,3.18,26.1,9.54,6.4,6.36,9.9,15.27,10.5,26.72h-25.82v-.67c0-3.97-1.03-7.07-3.09-9.32-2.06-2.25-4.92-3.37-8.59-3.37-3.22,0-5.89,1.11-8.03,3.31-2.13,2.21-3.2,4.96-3.2,8.25,0,5.39,5.54,10.4,16.61,15.04,2.92,1.2,5.16,2.13,6.74,2.81,10.63,4.79,17.88,9.93,21.78,15.43,3.89,5.5,5.84,12.93,5.84,22.28,0,11.53-3.89,21.05-11.67,28.57-7.78,7.52-17.59,11.28-29.41,11.28s-21.5-3.97-28.79-11.9c-7.3-7.93-11.28-18.67-11.95-32.22l26.27-.11Z"/>
        <path class="cls-5" d="M748.59,40.03h-28.06V12.64h28.06v27.39Zm-28.06,136.05V52.6h28.06v123.48h-28.06Z"/>
        <path class="cls-5" d="M827.84,176.08h-22.56l-46.92-123.48h30.64l28.74,82.06,29.63-82.06h29.86l-49.39,123.48Z"/>
        <path class="cls-5" d="M908.21,123.43c.97,8.91,4.51,15.92,10.61,21.05,6.1,5.13,13.98,7.69,23.63,7.69,6.44,0,12.22-1.35,17.34-4.04,5.12-2.69,9.19-6.47,12.18-11.34h30.98c-5.24,13.47-13.08,23.93-23.52,31.37-10.44,7.45-22.51,11.17-36.2,11.17-9.2,0-17.68-1.63-25.43-4.88-7.75-3.25-14.69-8.06-20.82-14.42-5.84-6.06-10.37-13.08-13.58-21.05-3.22-7.97-4.83-16.14-4.83-24.53s1.48-16.71,4.43-24.3c2.96-7.59,7.31-14.42,13.08-20.49,6.29-6.66,13.39-11.79,21.33-15.38,7.93-3.59,16.13-5.39,24.58-5.39,10.7,0,20.69,2.43,29.97,7.29,9.28,4.87,17.17,11.71,23.69,20.54,3.97,5.32,6.9,11.26,8.81,17.85,1.91,6.59,2.86,14.14,2.86,22.68,0,.67-.04,1.7-.11,3.09-.08,1.39-.11,2.41-.11,3.09h-98.89Zm68.14-22.79c-2.47-8.23-6.61-14.5-12.4-18.8-5.8-4.3-13.12-6.46-21.95-6.46-7.63,0-14.48,2.32-20.54,6.96-6.06,4.64-10.14,10.74-12.24,18.3h67.13Z"/>
        <rect class="cls-5" x="201.27" y="81.34" width="57.68" height="22.79"/>
        <path class="cls-5" d="M330.45,11.55c-1.25-.07-2.16-.11-2.73-.11-13.94,0-24.34,3.06-31.21,9.17-6.86,6.11-10.29,15.39-10.29,27.83v3.22h.04v124.42h27.84V51.66h0v-2.14c0-4.72,1.34-8.1,4.02-10.13,2.68-2.04,7.13-3.06,13.35-3.06h1.93V11.66c-.72,0-1.7-.04-2.95-.11Z"/>
        <rect class="cls-5" x="273.7" y="81.34" width="57.68" height="22.79"/>
        <g>
          <path class="cls-1" d="M92.65,27.96c-35.91,0-65.01,29.11-65.01,65.01s29.11,65.01,65.01,65.01,65.01-29.11,65.01-65.01S128.55,27.96,92.65,27.96Zm0,109.63c-24.64,0-44.62-19.97-44.62-44.62s19.97-44.61,44.62-44.61,44.62,19.97,44.62,44.61-19.98,44.62-44.62,44.62Z"/>
          <g>
            <rect class="cls-5" x="88.03" width="9.25" height="60.7"/>
            <rect class="cls-5" x="88.03" y="124.6" width="9.25" height="60.7"/>
          </g>
          <path class="cls-5" d="M92.65,175.88c-45.89,0-83.23-37.34-83.23-83.23S46.76,9.42,92.65,9.42s83.23,37.34,83.23,83.23-37.34,83.23-83.23,83.23Zm0-159.5c-42.06,0-76.27,34.22-76.27,76.27s34.21,76.27,76.27,76.27,76.27-34.22,76.27-76.27S134.71,16.38,92.65,16.38Z"/>
          <g>
            <rect class="cls-5" y="88.03" width="60.7" height="9.25"/>
            <rect class="cls-5" x="124.6" y="88.03" width="60.7" height="9.25"/>
          </g>
        </g>
      </g>
    </g>
  </g>
</svg>