<svg width="135" height="27" viewBox="0 0 135 27" fill="none" xmlns="http://www.w3.org/2000/svg">
<path d="M35.336 14.23C34.3036 13.3341 32.1554 13.403 30.2571 12.1797C29.5244 11.7145 29.208 10.8876 29.208 10.4051C29.208 9.87105 29.6409 8.33768 31.7724 8.33768C33.5209 8.33768 34.1038 9.35419 34.3536 10.2673H36.3851C36.0854 8.57889 35.3694 6.71817 31.889 6.59757C30.2904 6.52865 27.293 7.02829 27.293 10.767C27.293 13.1101 29.5244 14.1955 30.8566 14.5056C30.8566 14.5056 33.0713 15.0225 33.9539 15.7117C34.62 16.2457 34.6033 16.9694 34.6033 17.4173C34.6033 18.1926 34.0871 18.899 33.3378 19.1747C32.9381 19.3297 32.4219 19.3986 31.7891 19.3986C30.7233 19.3986 30.0906 19.0713 29.6576 18.5027C29.5077 18.296 29.3079 17.7447 29.2413 17.1589H27.293C27.3596 18.2443 27.5927 19.2608 28.3754 19.9155C29.3246 20.7253 30.5235 21.2594 32.1888 21.1904C34.1371 21.1215 36.6016 20.0533 36.6016 17.0727C36.6016 15.8667 36.0854 14.8847 35.336 14.23Z" fill="#06053B"/>
<path fill-rule="evenodd" clip-rule="evenodd" d="M108.223 6.00391H104.993V20.9587H108.223V6.00391ZM102.978 6.79699H94.2354V20.9592H97.4659V15.2909H101.679V12.5515H97.4659V9.55362H102.978V6.79699ZM121.279 9.65662V20.9588H118.032V19.167C117.699 19.7872 117.232 20.2696 116.633 20.6142C116.017 20.9588 115.334 21.1311 114.551 21.1311C113.619 21.1311 112.786 20.8899 112.053 20.4247C111.337 19.9595 110.771 19.2876 110.371 18.4261C109.972 17.5647 109.772 16.5482 109.772 15.4111C109.772 14.274 109.972 13.2402 110.371 12.3616C110.771 11.4657 111.337 10.7765 112.07 10.2941C112.786 9.79445 113.619 9.55324 114.535 9.55324C115.317 9.55324 116.017 9.72553 116.616 10.0701C117.232 10.4147 117.699 10.8971 118.015 11.5173V9.65662H121.279ZM117.399 17.3924C117.798 16.91 117.998 16.2381 117.998 15.3594C117.998 14.4635 117.798 13.7743 117.399 13.2919C116.999 12.8095 116.416 12.5683 115.667 12.5683C114.934 12.5683 114.368 12.8095 113.952 13.3091C113.535 13.8088 113.336 14.4979 113.336 15.3766C113.336 16.2553 113.535 16.9272 113.952 17.3924C114.368 17.8576 114.934 18.0988 115.684 18.0988C116.416 18.116 116.982 17.8748 117.399 17.3924ZM133.917 23.7671C134.317 23.0435 134.517 21.5962 134.517 20.8209H134.534V9.65647H131.17V11.0003C131.161 10.989 131.151 10.9759 131.14 10.9612C130.878 10.6216 129.976 9.44972 127.773 9.44972C125.824 9.44972 124.559 10.6558 124.159 11.1726C123.11 12.551 123.11 14.6874 123.11 15.4627C123.11 16.238 123.21 16.9788 123.41 17.668C123.61 18.3572 123.909 18.9602 124.292 19.4771C124.675 19.9939 125.158 20.4074 125.708 20.7003C126.257 20.9932 127.273 21.1655 127.973 21.1483C129.794 21.1166 130.687 20.0519 131.078 19.5854C131.112 19.5442 131.143 19.5078 131.17 19.4771C131.17 19.4771 131.27 21.2 130.97 22.2337C130.87 22.5438 130.254 23.457 128.905 23.5087C127.506 23.5604 126.94 22.7678 126.674 22.1476L123.493 22.1131C123.493 23.5087 124.193 24.6286 125.242 25.4039C126.64 26.4376 128.655 26.5582 130.304 26.3687C131.886 26.1792 133.085 25.2316 133.917 23.7671ZM130.221 13.0506C130.77 13.5847 131.137 14.4117 131.153 15.1698C131.153 15.8417 130.987 16.5309 130.687 17.0478C129.971 18.1849 128.439 18.271 127.44 17.4785C126.924 17.065 126.557 16.4103 126.457 15.7383C126.341 14.9458 126.491 14.0671 126.973 13.4641C127.24 13.1195 127.573 12.8611 127.973 12.706C128.722 12.3959 129.738 12.6026 130.221 13.0506Z" fill="url(#paint0_linear_117_388)"/>
<path d="M47.9088 11.793C48.4417 12.5855 48.6415 13.2919 48.7415 14.2567C48.8081 14.877 48.7415 15.5317 48.7415 16.1519H40.2321C40.2654 17.2201 41.1979 19.4943 43.6292 19.4943C46.0105 19.4943 46.3935 17.892 46.5433 17.5819H48.5583C48.4917 18.2194 47.4259 21.1483 43.5792 21.1483C42.2304 21.1483 38.417 20.4764 38.417 15.4972C38.417 13.6537 38.8999 12.2065 39.7991 11.2072C40.6817 10.208 41.914 9.60495 43.2129 9.5705C46.0771 9.48435 47.2261 10.7765 47.9088 11.793ZM41.2978 12.2065C40.5818 12.9474 40.4319 13.7054 40.2987 14.5324C40.2987 14.5496 40.2987 14.5669 40.2821 14.6013H46.9763C46.9263 13.7399 46.4268 12.7406 45.8106 12.1548C45.1445 11.5001 44.1454 11.19 43.2295 11.2762C42.5301 11.3278 41.8141 11.6552 41.2978 12.2065Z" fill="#06053B"/>
<path d="M64.5279 9.81508V16.4654C64.5279 17.0684 64.7111 17.6025 64.8609 17.9126C65.1107 18.6879 66.0766 19.4977 67.2256 19.4977C68.1248 19.4977 69.2905 19.2737 69.8899 18.3433C70.2396 17.8092 70.3895 17.3441 70.3895 15.8452V9.81508H72.3878V20.9966H70.4728V19.1875C70.4728 19.1875 70.4062 19.4977 70.0731 19.9112C69.1239 21.0827 67.5087 21.3067 66.1265 21.0655C66.0766 21.0483 66.0266 21.0483 65.9766 21.031C65.2939 20.8932 64.6112 20.5831 64.0783 20.1007C63.5621 19.6527 63.1791 18.998 62.9792 18.3261C62.8793 17.9643 62.8127 17.6025 62.7794 17.2235C62.7461 16.965 62.7461 16.7066 62.7461 16.4482V9.79785H64.5279V9.81508Z" fill="#06053B"/>
<path d="M80.531 9.58736V11.6031C79.5985 11.4998 78.5827 11.5342 77.8833 12.2923C77.5169 12.6886 77.2338 13.2399 77.1506 13.7912C77.0673 14.377 77.0673 14.9972 77.0673 15.583V20.9585H75.1689V9.77688H77.1839V11.4136C77.5169 10.8278 77.9998 10.3282 78.566 9.98362C79.1822 9.65627 79.8649 9.5529 80.531 9.58736Z" fill="#06053B"/>
<path d="M55.6184 19.4773C53.1871 19.4773 52.3212 17.2031 52.2213 16.1349C52.188 15.6525 52.0548 13.6023 53.2871 12.1895C53.7866 11.6209 54.5193 11.3281 55.2354 11.2591C56.1512 11.173 57.1504 11.4831 57.8165 12.1378C58.1995 12.4996 58.5325 13.0337 58.749 13.585H60.5808C60.4475 12.8614 60.1978 12.155 59.7648 11.5693C59.6149 11.3625 59.4317 11.173 59.2486 10.9835C58.9322 10.6734 58.5825 10.4322 58.1995 10.2254C57.2836 9.72577 56.2345 9.51902 55.2187 9.55348C53.9198 9.62239 52.6876 10.1909 51.805 11.1902C50.9058 12.2067 50.4229 13.654 50.4229 15.4802C50.4229 20.4594 54.2362 21.1313 55.5851 21.1313C59.4317 21.1313 60.5308 18.0129 60.5974 17.3926H58.5825C58.3993 17.7889 57.9997 19.4773 55.6184 19.4773Z" fill="#06053B"/>
<path d="M91.4039 11.793C91.9368 12.5855 92.1366 13.2919 92.2365 14.2567C92.3031 14.877 92.2365 15.5317 92.2365 16.1519H83.7272C83.7605 17.2201 84.693 19.4943 87.1243 19.4943C89.5055 19.4943 89.8885 17.892 90.0384 17.5819H92.0533C91.9867 18.2194 90.921 21.1483 87.0743 21.1483C85.7255 21.1483 81.9121 20.4764 81.9121 15.4972C81.9121 13.6537 82.395 12.2065 83.2942 11.2072C84.1768 10.208 85.4091 9.60495 86.708 9.5705C89.5721 9.48435 90.7212 10.7765 91.4039 11.793ZM84.7929 12.2065C84.0769 12.9474 83.927 13.7054 83.7938 14.5324C83.7938 14.5496 83.7938 14.5669 83.7772 14.6013H90.4714C90.4214 13.7399 89.9218 12.7406 89.3057 12.1548C88.6396 11.5001 87.6405 11.19 86.7246 11.2762C86.0252 11.3278 85.3092 11.6552 84.7929 12.2065Z" fill="#06053B"/>
<path d="M11.2949 0.00292969V4.47151L14.9336 2.14322L11.2949 0.00292969Z" fill="url(#paint1_linear_117_388)"/>
<path d="M18.5444 12.9654L14.9334 10.8977V6.46289L11.2947 8.68744L7.62851 6.46289L7.66986 10.855L4.10013 13.0082L0.392578 10.7837V19.4965L11.2809 25.999L22.1004 19.4965V10.7979L18.5444 12.9654ZM11.2947 17.3005L7.62851 15.19V19.1685L4.16905 17.2577L7.62851 15.19L11.2947 13.051C11.2947 13.051 14.6853 15.2042 14.768 15.19C14.8507 15.1757 11.2947 17.3005 11.2947 17.3005ZM14.768 19.1685V15.19L18.2274 17.2577L14.768 19.1685Z" fill="url(#paint2_linear_117_388)"/>
<defs>
<linearGradient id="paint0_linear_117_388" x1="73.8887" y1="3.63148" x2="121.817" y2="47.4175" gradientUnits="userSpaceOnUse">
<stop stop-color="#005AEC"/>
<stop offset="1" stop-color="#12DFE7"/>
</linearGradient>
<linearGradient id="paint1_linear_117_388" x1="8.32922" y1="0.701083" x2="25.6103" y2="8.8381" gradientUnits="userSpaceOnUse">
<stop stop-color="#005AEC"/>
<stop offset="1" stop-color="#12DFE7"/>
</linearGradient>
<linearGradient id="paint2_linear_117_388" x1="3.30485" y1="11.2131" x2="20.4972" y2="19.4227" gradientUnits="userSpaceOnUse">
<stop stop-color="#005AEC"/>
<stop offset="1" stop-color="#12DFE7"/>
</linearGradient>
</defs>
</svg>
